<?xml version="1.0" standalone="no"?>
<!DOCTYPE svg PUBLIC "-//W3C//DTD SVG 20010904//EN"
 "http://www.w3.org/TR/2001/REC-SVG-20010904/DTD/svg10.dtd">
<svg version="1.0" xmlns="http://www.w3.org/2000/svg"
 width="931.000000pt" height="931.000000pt" viewBox="0 0 931.000000 931.000000"
 preserveAspectRatio="xMidYMid meet">
<metadata>
Created by potrace 1.14, written by Peter Selinger 2001-2017
</metadata>
<g transform="translate(0.000000,931.000000) scale(0.100000,-0.100000)"
fill="#000000" stroke="none">
<path d="M2803 8826 c-176 -43 -306 -185 -348 -382 -19 -89 -19 -259 0 -348
43 -205 183 -350 373 -387 76 -14 216 -7 288 15 120 37 238 151 284 274 68
180 55 452 -27 604 -61 111 -182 200 -311 227 -68 14 -193 13 -259 -3z m247
-122 c155 -46 237 -174 247 -385 12 -237 -53 -391 -195 -461 -61 -30 -74 -33
-162 -33 -77 1 -105 5 -147 24 -62 27 -136 103 -164 167 -63 142 -63 366 0
508 24 56 94 132 143 157 79 40 189 49 278 23z"/>
<path d="M4963 8826 c-106 -26 -211 -118 -238 -210 -44 -148 17 -288 153 -349
32 -15 133 -42 223 -60 91 -19 179 -42 197 -51 84 -44 103 -175 37 -254 -55
-65 -201 -96 -342 -72 -75 12 -190 61 -247 105 -18 14 -36 25 -39 25 -4 0 -7
-38 -7 -84 l0 -84 63 -25 c101 -40 175 -57 284 -64 162 -10 270 19 362 96 150
126 146 363 -8 460 -58 36 -112 53 -275 86 -70 14 -146 33 -167 42 -104 41
-139 184 -63 260 49 49 110 68 219 68 117 0 206 -24 299 -80 32 -19 60 -35 63
-35 2 0 3 37 1 82 l-3 81 -65 25 c-130 49 -331 66 -447 38z"/>
<path d="M3510 8760 l0 -60 195 0 195 0 0 -490 0 -490 70 0 70 0 0 490 0 490
195 0 195 0 0 60 0 60 -460 0 -460 0 0 -60z"/>
<path d="M5872 8413 c4 -450 5 -460 70 -557 61 -93 164 -144 310 -153 155 -10
281 30 358 113 96 105 109 180 110 647 l0 357 -69 0 -70 0 -3 -397 c-4 -441
-6 -457 -71 -523 -101 -104 -322 -107 -423 -6 -71 71 -74 91 -74 538 l0 388
-70 0 -71 0 3 -407z"/>
<path d="M7000 8270 l0 -550 70 0 70 0 0 193 0 193 53 52 53 52 214 -245 215
-245 88 0 c68 0 86 3 81 13 -5 6 -118 137 -253 290 l-244 278 45 47 c37 40
294 314 407 435 l35 37 -84 0 -85 -1 -260 -282 -260 -282 -3 283 -2 282 -70 0
-70 0 0 -550z"/>
<path d="M8216 8283 c-109 -296 -201 -544 -204 -550 -3 -10 14 -13 66 -13 l70
0 55 153 55 152 242 0 242 0 55 -152 55 -153 74 0 74 0 -25 68 c-14 37 -106
283 -204 547 l-178 480 -89 3 -89 2 -199 -537z m386 127 l95 -260 -193 0
c-107 0 -194 3 -194 8 -1 15 184 512 190 512 4 0 49 -117 102 -260z"/>
<path d="M4963 7626 c-106 -26 -211 -118 -238 -210 -44 -148 17 -288 153 -349
32 -15 133 -42 223 -60 91 -19 179 -42 197 -51 84 -44 103 -175 37 -254 -55
-65 -201 -96 -342 -72 -75 12 -190 61 -247 105 -18 14 -36 25 -39 25 -4 0 -7
-38 -7 -84 l0 -84 63 -25 c101 -40 175 -57 284 -64 162 -10 270 19 362 96 150
126 146 363 -8 460 -58 36 -112 53 -275 86 -70 14 -146 33 -167 42 -104 41
-139 184 -63 260 49 49 110 68 219 68 117 0 206 -24 299 -80 32 -19 60 -35 63
-35 2 0 3 37 1 82 l-3 81 -65 25 c-130 49 -331 66 -447 38z"/>
<path d="M3510 7560 l0 -60 195 0 195 0 0 -490 0 -490 70 0 70 0 0 490 0 490
195 0 195 0 0 60 0 60 -460 0 -460 0 0 -60z"/>
<path d="M5872 7213 c4 -450 5 -460 70 -557 61 -93 164 -144 310 -153 155 -10
281 30 358 113 96 105 109 180 110 647 l0 357 -69 0 -70 0 -3 -397 c-4 -441
-6 -457 -71 -523 -101 -104 -322 -107 -423 -6 -71 71 -74 91 -74 538 l0 388
-70 0 -71 0 3 -407z"/>
<path d="M7000 7070 l0 -550 70 0 70 0 0 193 0 193 53 52 53 52 214 -245 215
-245 88 0 c68 0 86 3 81 13 -5 6 -118 137 -253 290 l-244 278 45 47 c37 40
294 314 407 435 l35 37 -84 0 -85 -1 -260 -282 -260 -282 -3 283 -2 282 -70 0
-70 0 0 -550z"/>
<path d="M8216 7083 c-109 -296 -201 -544 -204 -550 -3 -10 14 -13 66 -13 l70
0 55 153 55 152 242 0 242 0 55 -152 55 -153 74 0 74 0 -25 68 c-14 37 -106
283 -204 547 l-178 480 -89 3 -89 2 -199 -537z m386 127 l95 -260 -193 0
c-107 0 -194 3 -194 8 -1 15 184 512 190 512 4 0 49 -117 102 -260z"/>
<path d="M4963 6426 c-106 -26 -211 -118 -238 -210 -44 -148 17 -288 153 -349
32 -15 133 -42 223 -60 91 -19 179 -42 197 -51 84 -44 103 -175 37 -254 -55
-65 -201 -96 -342 -72 -75 12 -190 61 -247 105 -18 14 -36 25 -39 25 -4 0 -7
-38 -7 -84 l0 -84 63 -25 c101 -40 175 -57 284 -64 162 -10 270 19 362 96 150
126 146 363 -8 460 -58 36 -112 53 -275 86 -70 14 -146 33 -167 42 -104 41
-139 184 -63 260 49 49 110 68 219 68 117 0 206 -24 299 -80 32 -19 60 -35 63
-35 2 0 3 37 1 82 l-3 81 -65 25 c-130 49 -331 66 -447 38z"/>
<path d="M250 5870 l0 -550 70 0 70 0 0 270 0 270 285 0 285 0 0 -270 0 -270
70 0 70 0 0 550 0 550 -70 0 -70 0 0 -220 0 -220 -285 0 -285 0 0 220 0 220
-70 0 -70 0 0 -550z"/>
<path d="M5872 6013 c4 -450 5 -460 70 -557 61 -93 164 -144 310 -153 155 -10
281 30 358 113 96 105 109 180 110 647 l0 357 -69 0 -70 0 -3 -397 c-4 -441
-6 -457 -71 -523 -101 -104 -322 -107 -423 -6 -71 71 -74 91 -74 538 l0 388
-70 0 -71 0 3 -407z"/>
<path d="M7000 5870 l0 -550 70 0 70 0 0 193 0 193 53 52 53 52 214 -245 215
-245 88 0 c68 0 86 3 81 13 -5 6 -118 137 -253 290 l-244 278 45 47 c37 40
294 314 407 435 l35 37 -84 0 -85 -1 -260 -282 -260 -282 -3 283 -2 282 -70 0
-70 0 0 -550z"/>
<path d="M8216 5883 c-109 -296 -201 -544 -204 -550 -3 -10 14 -13 66 -13 l70
0 55 153 55 152 242 0 242 0 55 -152 55 -153 74 0 74 0 -25 68 c-14 37 -106
283 -204 547 l-178 480 -89 3 -89 2 -199 -537z m386 127 l95 -260 -193 0
c-107 0 -194 3 -194 8 -1 15 184 512 190 512 4 0 49 -117 102 -260z"/>
<path d="M250 4670 l0 -550 70 0 70 0 0 270 0 270 285 0 285 0 0 -270 0 -270
70 0 70 0 0 550 0 550 -70 0 -70 0 0 -220 0 -220 -285 0 -285 0 0 220 0 220
-70 0 -70 0 0 -550z"/>
<path d="M5872 4813 c4 -450 5 -460 70 -557 61 -93 164 -144 310 -153 155 -10
281 30 358 113 96 105 109 180 110 647 l0 357 -69 0 -70 0 -3 -397 c-4 -441
-6 -457 -71 -523 -101 -104 -322 -107 -423 -6 -71 71 -74 91 -74 538 l0 388
-70 0 -71 0 3 -407z"/>
<path d="M7000 4670 l0 -550 70 0 70 0 0 193 0 193 53 52 53 52 214 -245 215
-245 88 0 c68 0 86 3 81 13 -5 6 -118 137 -253 290 l-244 278 45 47 c37 40
294 314 407 435 l35 37 -84 0 -85 -1 -260 -282 -260 -282 -3 283 -2 282 -70 0
-70 0 0 -550z"/>
<path d="M8216 4683 c-109 -296 -201 -544 -204 -550 -3 -10 14 -13 66 -13 l70
0 55 153 55 152 242 0 242 0 55 -152 55 -153 74 0 74 0 -25 68 c-14 37 -106
283 -204 547 l-178 480 -89 3 -89 2 -199 -537z m386 127 l95 -260 -193 0
c-107 0 -194 3 -194 8 -1 15 184 512 190 512 4 0 49 -117 102 -260z"/>
<path d="M1420 4220 l0 -100 85 0 85 0 0 100 0 100 -85 0 -85 0 0 -100z"/>
<path d="M2803 4026 c-176 -43 -306 -185 -348 -382 -19 -89 -19 -259 0 -348
43 -205 183 -350 373 -387 76 -14 216 -7 288 15 120 37 238 151 284 274 68
180 55 452 -27 604 -61 111 -182 200 -311 227 -68 14 -193 13 -259 -3z m247
-122 c155 -46 237 -174 247 -385 12 -237 -53 -391 -195 -461 -61 -30 -74 -33
-162 -33 -77 1 -105 5 -147 24 -62 27 -136 103 -164 167 -63 142 -63 366 0
508 24 56 94 132 143 157 79 40 189 49 278 23z"/>
<path d="M250 3470 l0 -550 70 0 70 0 0 270 0 270 285 0 285 0 0 -270 0 -270
70 0 70 0 0 550 0 550 -70 0 -70 0 0 -220 0 -220 -285 0 -285 0 0 220 0 220
-70 0 -70 0 0 -550z"/>
<path d="M7000 3470 l0 -550 70 0 70 0 0 193 0 193 53 52 53 52 214 -245 215
-245 88 0 c68 0 86 3 81 13 -5 6 -118 137 -253 290 l-244 278 45 47 c37 40
294 314 407 435 l35 37 -84 0 -85 -1 -260 -282 -260 -282 -3 283 -2 282 -70 0
-70 0 0 -550z"/>
<path d="M8216 3483 c-109 -296 -201 -544 -204 -550 -3 -10 14 -13 66 -13 l70
0 55 153 55 152 242 0 242 0 55 -152 55 -153 74 0 74 0 -25 68 c-14 37 -106
283 -204 547 l-178 480 -89 3 -89 2 -199 -537z m386 127 l95 -260 -193 0
c-107 0 -194 3 -194 8 -1 15 184 512 190 512 4 0 49 -117 102 -260z"/>
<path d="M1420 3020 l0 -100 85 0 85 0 0 100 0 100 -85 0 -85 0 0 -100z"/>
<path d="M2803 2826 c-176 -43 -306 -185 -348 -382 -19 -89 -19 -259 0 -348
43 -205 183 -350 373 -387 76 -14 216 -7 288 15 120 37 238 151 284 274 68
180 55 452 -27 604 -61 111 -182 200 -311 227 -68 14 -193 13 -259 -3z m247
-122 c155 -46 237 -174 247 -385 12 -237 -53 -391 -195 -461 -61 -30 -74 -33
-162 -33 -77 1 -105 5 -147 24 -62 27 -136 103 -164 167 -63 142 -63 366 0
508 24 56 94 132 143 157 79 40 189 49 278 23z"/>
<path d="M250 2270 l0 -550 70 0 70 0 0 270 0 270 285 0 285 0 0 -270 0 -270
70 0 70 0 0 550 0 550 -70 0 -70 0 0 -220 0 -220 -285 0 -285 0 0 220 0 220
-70 0 -70 0 0 -550z"/>
<path d="M3510 2760 l0 -60 195 0 195 0 0 -490 0 -490 70 0 70 0 0 490 0 490
195 0 195 0 0 60 0 60 -460 0 -460 0 0 -60z"/>
<path d="M8216 2283 c-109 -296 -201 -544 -204 -550 -3 -10 14 -13 66 -13 l70
0 55 153 55 152 242 0 242 0 55 -152 55 -153 74 0 74 0 -25 68 c-14 37 -106
283 -204 547 l-178 480 -89 3 -89 2 -199 -537z m386 127 l95 -260 -193 0
c-107 0 -194 3 -194 8 -1 15 184 512 190 512 4 0 49 -117 102 -260z"/>
<path d="M1420 1820 l0 -100 85 0 85 0 0 100 0 100 -85 0 -85 0 0 -100z"/>
<path d="M2803 1626 c-176 -43 -306 -185 -348 -382 -19 -89 -19 -259 0 -348
43 -205 183 -350 373 -387 76 -14 216 -7 288 15 120 37 238 151 284 274 68
180 55 452 -27 604 -61 111 -182 200 -311 227 -68 14 -193 13 -259 -3z m247
-122 c155 -46 237 -174 247 -385 12 -237 -53 -391 -195 -461 -61 -30 -74 -33
-162 -33 -77 1 -105 5 -147 24 -62 27 -136 103 -164 167 -63 142 -63 366 0
508 24 56 94 132 143 157 79 40 189 49 278 23z"/>
<path d="M4963 1626 c-106 -26 -211 -118 -238 -210 -44 -148 17 -288 153 -349
32 -15 133 -42 223 -60 91 -19 179 -42 197 -51 84 -44 103 -175 37 -254 -55
-65 -201 -96 -342 -72 -75 12 -190 61 -247 105 -18 14 -36 25 -39 25 -4 0 -7
-38 -7 -84 l0 -84 63 -25 c101 -40 175 -57 284 -64 162 -10 270 19 362 96 150
126 146 363 -8 460 -58 36 -112 53 -275 86 -70 14 -146 33 -167 42 -104 41
-139 184 -63 260 49 49 110 68 219 68 117 0 206 -24 299 -80 32 -19 60 -35 63
-35 2 0 3 37 1 82 l-3 81 -65 25 c-130 49 -331 66 -447 38z"/>
<path d="M250 1070 l0 -550 70 0 70 0 0 270 0 270 285 0 285 0 0 -270 0 -270
70 0 70 0 0 550 0 550 -70 0 -70 0 0 -220 0 -220 -285 0 -285 0 0 220 0 220
-70 0 -70 0 0 -550z"/>
<path d="M3510 1560 l0 -60 195 0 195 0 0 -490 0 -490 70 0 70 0 0 490 0 490
195 0 195 0 0 60 0 60 -460 0 -460 0 0 -60z"/>
<path d="M1420 620 l0 -100 85 0 85 0 0 100 0 100 -85 0 -85 0 0 -100z"/>
</g>
</svg>
